<mxfile host="65bd71144e">
    <diagram id="691b31df-7cfc-d80e-552c-7aa9f8c0b5f7" name="Page-1">
        <mxGraphModel dx="1100" dy="863" grid="1" gridSize="10" guides="1" tooltips="1" connect="1" arrows="1" fold="1" page="1" pageScale="1" pageWidth="826" pageHeight="1169" background="#ffffff" math="0" shadow="0">
            <root>
                <mxCell id="0"/>
                <mxCell id="1" parent="0"/>
                <mxCell id="149" style="edgeStyle=none;html=1;exitX=1;exitY=0.5;exitDx=0;exitDy=0;entryX=0;entryY=0.5;entryDx=0;entryDy=0;strokeWidth=1;strokeColor=#000000;" parent="1" source="3" target="9" edge="1">
                    <mxGeometry relative="1" as="geometry"/>
                </mxCell>
                <mxCell id="155" style="edgeStyle=none;html=1;exitX=1;exitY=0.5;exitDx=0;exitDy=0;entryX=0;entryY=0.5;entryDx=0;entryDy=0;strokeColor=#000000;strokeWidth=1;" parent="1" source="3" target="8" edge="1">
                    <mxGeometry relative="1" as="geometry"/>
                </mxCell>
                <mxCell id="157" style="edgeStyle=none;html=1;exitX=1;exitY=0.5;exitDx=0;exitDy=0;entryX=0;entryY=0.5;entryDx=0;entryDy=0;strokeColor=#000000;strokeWidth=1;" parent="1" source="3" target="10" edge="1">
                    <mxGeometry relative="1" as="geometry"/>
                </mxCell>
                <mxCell id="158" style="edgeStyle=none;html=1;entryX=0;entryY=0.5;entryDx=0;entryDy=0;strokeColor=#000000;strokeWidth=1;exitX=1;exitY=0.5;exitDx=0;exitDy=0;" parent="1" source="3" target="12" edge="1">
                    <mxGeometry relative="1" as="geometry"/>
                </mxCell>
                <mxCell id="159" style="edgeStyle=none;html=1;exitX=1;exitY=0.5;exitDx=0;exitDy=0;entryX=0;entryY=0.5;entryDx=0;entryDy=0;strokeColor=#000000;strokeWidth=1;" parent="1" source="3" target="11" edge="1">
                    <mxGeometry relative="1" as="geometry"/>
                </mxCell>
                <mxCell id="3" value="" style="ellipse;whiteSpace=wrap;html=1;aspect=fixed;strokeWidth=1;fillColor=none;fontColor=#666666;align=center;strokeColor=#000000;" parent="1" vertex="1">
                    <mxGeometry x="115" y="113" width="40" height="40" as="geometry"/>
                </mxCell>
                <mxCell id="310" style="edgeStyle=none;html=1;exitX=1;exitY=0.5;exitDx=0;exitDy=0;strokeColor=#000000;entryX=0;entryY=0.5;entryDx=0;entryDy=0;strokeWidth=1;" parent="1" source="4" target="8" edge="1">
                    <mxGeometry relative="1" as="geometry">
                        <mxPoint x="240" y="140" as="targetPoint"/>
                    </mxGeometry>
                </mxCell>
                <mxCell id="311" style="edgeStyle=none;html=1;entryX=0;entryY=0.5;entryDx=0;entryDy=0;strokeColor=#000000;strokeWidth=1;" parent="1" target="9" edge="1">
                    <mxGeometry relative="1" as="geometry">
                        <mxPoint x="160" y="214" as="sourcePoint"/>
                    </mxGeometry>
                </mxCell>
                <mxCell id="312" style="edgeStyle=none;html=1;exitX=1;exitY=0.5;exitDx=0;exitDy=0;entryX=0;entryY=0.5;entryDx=0;entryDy=0;strokeColor=#000000;strokeWidth=1;" parent="1" source="4" target="10" edge="1">
                    <mxGeometry relative="1" as="geometry"/>
                </mxCell>
                <mxCell id="313" style="edgeStyle=none;html=1;exitX=1;exitY=0.5;exitDx=0;exitDy=0;entryX=0;entryY=0.5;entryDx=0;entryDy=0;strokeColor=#000000;strokeWidth=1;" parent="1" source="4" target="12" edge="1">
                    <mxGeometry relative="1" as="geometry"/>
                </mxCell>
                <mxCell id="314" style="edgeStyle=none;html=1;exitX=1;exitY=0.5;exitDx=0;exitDy=0;entryX=0;entryY=0.5;entryDx=0;entryDy=0;strokeColor=#000000;strokeWidth=1;" parent="1" source="4" target="11" edge="1">
                    <mxGeometry relative="1" as="geometry"/>
                </mxCell>
                <mxCell id="4" value="" style="ellipse;whiteSpace=wrap;html=1;aspect=fixed;strokeWidth=1;fillColor=none;fontColor=#666666;align=center;strokeColor=#000000;" parent="1" vertex="1">
                    <mxGeometry x="115" y="194" width="40" height="40" as="geometry"/>
                </mxCell>
                <mxCell id="315" style="edgeStyle=none;html=1;exitX=1;exitY=0.5;exitDx=0;exitDy=0;entryX=0;entryY=0.5;entryDx=0;entryDy=0;strokeColor=#000000;strokeWidth=1;" parent="1" source="5" target="8" edge="1">
                    <mxGeometry relative="1" as="geometry"/>
                </mxCell>
                <mxCell id="316" style="edgeStyle=none;html=1;exitX=1;exitY=0.5;exitDx=0;exitDy=0;entryX=0;entryY=0.5;entryDx=0;entryDy=0;strokeColor=#000000;strokeWidth=1;" parent="1" source="5" target="9" edge="1">
                    <mxGeometry relative="1" as="geometry"/>
                </mxCell>
                <mxCell id="317" style="edgeStyle=none;html=1;exitX=1;exitY=0.5;exitDx=0;exitDy=0;entryX=0;entryY=0.5;entryDx=0;entryDy=0;strokeColor=#000000;strokeWidth=1;" parent="1" source="5" target="10" edge="1">
                    <mxGeometry relative="1" as="geometry"/>
                </mxCell>
                <mxCell id="318" style="edgeStyle=none;html=1;exitX=1;exitY=0.5;exitDx=0;exitDy=0;entryX=0;entryY=0.5;entryDx=0;entryDy=0;strokeColor=#000000;strokeWidth=1;" parent="1" source="5" target="12" edge="1">
                    <mxGeometry relative="1" as="geometry"/>
                </mxCell>
                <mxCell id="319" style="edgeStyle=none;html=1;exitX=1;exitY=0.5;exitDx=0;exitDy=0;entryX=0;entryY=0.5;entryDx=0;entryDy=0;strokeColor=#000000;strokeWidth=1;" parent="1" source="5" target="11" edge="1">
                    <mxGeometry relative="1" as="geometry"/>
                </mxCell>
                <mxCell id="5" value="" style="ellipse;whiteSpace=wrap;html=1;aspect=fixed;strokeWidth=1;fillColor=none;fontColor=#666666;align=center;strokeColor=#000000;" parent="1" vertex="1">
                    <mxGeometry x="115" y="272" width="40" height="40" as="geometry"/>
                </mxCell>
                <mxCell id="325" style="edgeStyle=none;html=1;exitX=1;exitY=0.5;exitDx=0;exitDy=0;entryX=0;entryY=0.5;entryDx=0;entryDy=0;strokeColor=#000000;strokeWidth=1;" parent="1" source="6" target="11" edge="1">
                    <mxGeometry relative="1" as="geometry"/>
                </mxCell>
                <mxCell id="326" style="edgeStyle=none;html=1;exitX=1;exitY=0.5;exitDx=0;exitDy=0;entryX=0;entryY=0.5;entryDx=0;entryDy=0;strokeColor=#000000;strokeWidth=1;" parent="1" source="6" target="12" edge="1">
                    <mxGeometry relative="1" as="geometry"/>
                </mxCell>
                <mxCell id="327" style="edgeStyle=none;html=1;exitX=1;exitY=0.5;exitDx=0;exitDy=0;entryX=0;entryY=0.5;entryDx=0;entryDy=0;strokeColor=#000000;strokeWidth=1;" parent="1" source="6" target="10" edge="1">
                    <mxGeometry relative="1" as="geometry"/>
                </mxCell>
                <mxCell id="328" style="edgeStyle=none;html=1;exitX=1;exitY=0.5;exitDx=0;exitDy=0;entryX=0;entryY=0.5;entryDx=0;entryDy=0;strokeColor=#000000;strokeWidth=1;" parent="1" source="6" target="9" edge="1">
                    <mxGeometry relative="1" as="geometry"/>
                </mxCell>
                <mxCell id="329" style="edgeStyle=none;html=1;exitX=1;exitY=0.5;exitDx=0;exitDy=0;entryX=0;entryY=0.5;entryDx=0;entryDy=0;strokeColor=#000000;strokeWidth=1;" parent="1" source="6" target="8" edge="1">
                    <mxGeometry relative="1" as="geometry"/>
                </mxCell>
                <mxCell id="6" value="" style="ellipse;whiteSpace=wrap;html=1;aspect=fixed;strokeWidth=1;fillColor=none;fontColor=#666666;align=center;strokeColor=#000000;" parent="1" vertex="1">
                    <mxGeometry x="115" y="433" width="40" height="40" as="geometry"/>
                </mxCell>
                <mxCell id="320" style="edgeStyle=none;html=1;exitX=1;exitY=0.5;exitDx=0;exitDy=0;strokeColor=#000000;strokeWidth=1;" parent="1" source="7" edge="1">
                    <mxGeometry relative="1" as="geometry">
                        <mxPoint x="250" y="220" as="targetPoint"/>
                    </mxGeometry>
                </mxCell>
                <mxCell id="321" style="edgeStyle=none;html=1;exitX=1;exitY=0.5;exitDx=0;exitDy=0;strokeColor=#000000;strokeWidth=1;" parent="1" source="7" edge="1">
                    <mxGeometry relative="1" as="geometry">
                        <mxPoint x="250" y="140" as="targetPoint"/>
                    </mxGeometry>
                </mxCell>
                <mxCell id="322" style="edgeStyle=none;html=1;exitX=1;exitY=0.5;exitDx=0;exitDy=0;entryX=0;entryY=0.5;entryDx=0;entryDy=0;strokeColor=#000000;strokeWidth=1;" parent="1" source="7" target="12" edge="1">
                    <mxGeometry relative="1" as="geometry"/>
                </mxCell>
                <mxCell id="323" style="edgeStyle=none;html=1;exitX=1;exitY=0.5;exitDx=0;exitDy=0;entryX=0;entryY=0.5;entryDx=0;entryDy=0;strokeColor=#000000;strokeWidth=1;" parent="1" source="7" target="10" edge="1">
                    <mxGeometry relative="1" as="geometry"/>
                </mxCell>
                <mxCell id="324" style="edgeStyle=none;html=1;exitX=1;exitY=0.5;exitDx=0;exitDy=0;entryX=0;entryY=0.5;entryDx=0;entryDy=0;strokeColor=#000000;strokeWidth=1;" parent="1" source="7" target="11" edge="1">
                    <mxGeometry relative="1" as="geometry"/>
                </mxCell>
                <mxCell id="7" value="" style="ellipse;whiteSpace=wrap;html=1;aspect=fixed;strokeWidth=1;fillColor=none;fontColor=#666666;align=center;strokeColor=#000000;" parent="1" vertex="1">
                    <mxGeometry x="115" y="352" width="40" height="40" as="geometry"/>
                </mxCell>
                <mxCell id="160" style="edgeStyle=none;html=1;exitX=1;exitY=0.5;exitDx=0;exitDy=0;entryX=-0.075;entryY=0.3;entryDx=0;entryDy=0;entryPerimeter=0;strokeColor=#000000;strokeWidth=1;" parent="1" source="8" target="40" edge="1">
                    <mxGeometry relative="1" as="geometry"/>
                </mxCell>
                <mxCell id="164" style="edgeStyle=none;html=1;exitX=1;exitY=0.5;exitDx=0;exitDy=0;entryX=0;entryY=0.5;entryDx=0;entryDy=0;strokeColor=#000000;strokeWidth=1;" parent="1" source="8" target="41" edge="1">
                    <mxGeometry relative="1" as="geometry"/>
                </mxCell>
                <mxCell id="173" style="edgeStyle=none;html=1;exitX=1;exitY=0.5;exitDx=0;exitDy=0;entryX=0;entryY=0.5;entryDx=0;entryDy=0;strokeColor=#000000;strokeWidth=1;" parent="1" source="8" target="38" edge="1">
                    <mxGeometry relative="1" as="geometry"/>
                </mxCell>
                <mxCell id="174" style="edgeStyle=none;html=1;exitX=1;exitY=0.5;exitDx=0;exitDy=0;entryX=0;entryY=0.5;entryDx=0;entryDy=0;strokeColor=#000000;strokeWidth=1;" parent="1" source="8" target="37" edge="1">
                    <mxGeometry relative="1" as="geometry"/>
                </mxCell>
                <mxCell id="175" style="edgeStyle=none;html=1;exitX=1;exitY=0.5;exitDx=0;exitDy=0;entryX=0;entryY=0.5;entryDx=0;entryDy=0;strokeColor=#000000;strokeWidth=1;" parent="1" source="8" target="39" edge="1">
                    <mxGeometry relative="1" as="geometry"/>
                </mxCell>
                <mxCell id="8" value="" style="ellipse;whiteSpace=wrap;html=1;aspect=fixed;strokeWidth=1;fillColor=none;fontColor=#666666;align=center;strokeColor=#000000;" parent="1" vertex="1">
                    <mxGeometry x="250" y="113" width="40" height="40" as="geometry"/>
                </mxCell>
                <mxCell id="150" style="edgeStyle=none;html=1;exitX=1;exitY=0.5;exitDx=0;exitDy=0;entryX=0;entryY=0.5;entryDx=0;entryDy=0;strokeColor=#000000;strokeWidth=1;" parent="1" source="9" target="40" edge="1">
                    <mxGeometry relative="1" as="geometry"/>
                </mxCell>
                <mxCell id="165" style="edgeStyle=none;html=1;exitX=1;exitY=0.5;exitDx=0;exitDy=0;strokeColor=#000000;strokeWidth=1;entryX=0;entryY=0.5;entryDx=0;entryDy=0;" parent="1" source="9" target="41" edge="1">
                    <mxGeometry relative="1" as="geometry">
                        <mxPoint x="390" y="380" as="targetPoint"/>
                    </mxGeometry>
                </mxCell>
                <mxCell id="176" style="edgeStyle=none;html=1;exitX=1;exitY=0.5;exitDx=0;exitDy=0;entryX=0;entryY=0.5;entryDx=0;entryDy=0;strokeColor=#000000;strokeWidth=1;" parent="1" source="9" target="39" edge="1">
                    <mxGeometry relative="1" as="geometry"/>
                </mxCell>
                <mxCell id="177" style="edgeStyle=none;html=1;exitX=1;exitY=0.5;exitDx=0;exitDy=0;entryX=0;entryY=0.5;entryDx=0;entryDy=0;strokeColor=#000000;strokeWidth=1;" parent="1" source="9" target="38" edge="1">
                    <mxGeometry relative="1" as="geometry"/>
                </mxCell>
                <mxCell id="178" style="edgeStyle=none;html=1;exitX=1;exitY=0.5;exitDx=0;exitDy=0;entryX=0;entryY=0.5;entryDx=0;entryDy=0;strokeColor=#000000;strokeWidth=1;" parent="1" source="9" target="37" edge="1">
                    <mxGeometry relative="1" as="geometry"/>
                </mxCell>
                <mxCell id="9" value="" style="ellipse;whiteSpace=wrap;html=1;aspect=fixed;strokeWidth=1;fillColor=none;fontColor=#666666;align=center;strokeColor=#000000;" parent="1" vertex="1">
                    <mxGeometry x="250" y="194" width="40" height="40" as="geometry"/>
                </mxCell>
                <mxCell id="161" style="edgeStyle=none;html=1;exitX=1;exitY=0.5;exitDx=0;exitDy=0;strokeColor=#000000;strokeWidth=1;" parent="1" source="10" edge="1">
                    <mxGeometry relative="1" as="geometry">
                        <mxPoint x="380" y="450" as="targetPoint"/>
                    </mxGeometry>
                </mxCell>
                <mxCell id="166" style="edgeStyle=none;html=1;exitX=1;exitY=0.5;exitDx=0;exitDy=0;entryX=0;entryY=0.5;entryDx=0;entryDy=0;strokeColor=#000000;strokeWidth=1;" parent="1" source="10" target="41" edge="1">
                    <mxGeometry relative="1" as="geometry"/>
                </mxCell>
                <mxCell id="179" style="edgeStyle=none;html=1;exitX=1;exitY=0.5;exitDx=0;exitDy=0;entryX=0;entryY=0.5;entryDx=0;entryDy=0;strokeColor=#000000;strokeWidth=1;" parent="1" source="10" target="39" edge="1">
                    <mxGeometry relative="1" as="geometry"/>
                </mxCell>
                <mxCell id="180" style="edgeStyle=none;html=1;exitX=1;exitY=0.5;exitDx=0;exitDy=0;entryX=0;entryY=0.5;entryDx=0;entryDy=0;strokeColor=#000000;strokeWidth=1;" parent="1" source="10" target="38" edge="1">
                    <mxGeometry relative="1" as="geometry"/>
                </mxCell>
                <mxCell id="10" value="" style="ellipse;whiteSpace=wrap;html=1;aspect=fixed;strokeWidth=1;fillColor=none;fontColor=#666666;align=center;strokeColor=#000000;" parent="1" vertex="1">
                    <mxGeometry x="250" y="272" width="40" height="40" as="geometry"/>
                </mxCell>
                <mxCell id="163" style="edgeStyle=none;html=1;exitX=1;exitY=0.5;exitDx=0;exitDy=0;strokeColor=#000000;strokeWidth=1;entryX=0;entryY=0.5;entryDx=0;entryDy=0;" parent="1" source="11" target="40" edge="1">
                    <mxGeometry relative="1" as="geometry">
                        <mxPoint x="380" y="450" as="targetPoint"/>
                    </mxGeometry>
                </mxCell>
                <mxCell id="168" style="edgeStyle=none;html=1;exitX=1;exitY=0.5;exitDx=0;exitDy=0;entryX=0;entryY=0.5;entryDx=0;entryDy=0;strokeColor=#000000;strokeWidth=1;" parent="1" source="11" target="41" edge="1">
                    <mxGeometry relative="1" as="geometry"/>
                </mxCell>
                <mxCell id="181" style="edgeStyle=none;html=1;exitX=1;exitY=0.5;exitDx=0;exitDy=0;strokeColor=#000000;strokeWidth=1;entryX=0;entryY=0.5;entryDx=0;entryDy=0;" parent="1" source="11" target="39" edge="1">
                    <mxGeometry relative="1" as="geometry">
                        <mxPoint x="380" y="290" as="targetPoint"/>
                    </mxGeometry>
                </mxCell>
                <mxCell id="182" style="edgeStyle=none;html=1;exitX=1;exitY=0.5;exitDx=0;exitDy=0;entryX=0;entryY=0.5;entryDx=0;entryDy=0;strokeColor=#000000;strokeWidth=1;" parent="1" source="11" target="38" edge="1">
                    <mxGeometry relative="1" as="geometry"/>
                </mxCell>
                <mxCell id="183" style="edgeStyle=none;html=1;exitX=1;exitY=0.5;exitDx=0;exitDy=0;entryX=0;entryY=0.5;entryDx=0;entryDy=0;strokeColor=#000000;strokeWidth=1;" parent="1" source="11" target="37" edge="1">
                    <mxGeometry relative="1" as="geometry"/>
                </mxCell>
                <mxCell id="11" value="" style="ellipse;whiteSpace=wrap;html=1;aspect=fixed;strokeWidth=1;fillColor=none;fontColor=#666666;align=center;strokeColor=#000000;" parent="1" vertex="1">
                    <mxGeometry x="250" y="433" width="40" height="40" as="geometry"/>
                </mxCell>
                <mxCell id="162" style="edgeStyle=none;html=1;exitX=1;exitY=0.5;exitDx=0;exitDy=0;entryX=0;entryY=0.35;entryDx=0;entryDy=0;entryPerimeter=0;strokeColor=#000000;strokeWidth=1;" parent="1" source="12" target="40" edge="1">
                    <mxGeometry relative="1" as="geometry"/>
                </mxCell>
                <mxCell id="169" style="edgeStyle=none;html=1;exitX=1;exitY=0.5;exitDx=0;exitDy=0;strokeColor=#000000;strokeWidth=1;entryX=0;entryY=0.5;entryDx=0;entryDy=0;" parent="1" source="12" target="41" edge="1">
                    <mxGeometry relative="1" as="geometry">
                        <mxPoint x="380" y="372" as="targetPoint"/>
                    </mxGeometry>
                </mxCell>
                <mxCell id="170" style="edgeStyle=none;html=1;exitX=1;exitY=0.5;exitDx=0;exitDy=0;entryX=0;entryY=0.5;entryDx=0;entryDy=0;strokeColor=#000000;strokeWidth=1;" parent="1" source="12" target="39" edge="1">
                    <mxGeometry relative="1" as="geometry"/>
                </mxCell>
                <mxCell id="171" style="edgeStyle=none;html=1;exitX=1;exitY=0.5;exitDx=0;exitDy=0;entryX=0;entryY=0.5;entryDx=0;entryDy=0;strokeColor=#000000;strokeWidth=1;" parent="1" source="12" target="38" edge="1">
                    <mxGeometry relative="1" as="geometry"/>
                </mxCell>
                <mxCell id="172" style="edgeStyle=none;html=1;exitX=1;exitY=0.5;exitDx=0;exitDy=0;entryX=0;entryY=0.5;entryDx=0;entryDy=0;strokeColor=#000000;strokeWidth=1;" parent="1" source="12" target="37" edge="1">
                    <mxGeometry relative="1" as="geometry"/>
                </mxCell>
                <mxCell id="12" value="" style="ellipse;whiteSpace=wrap;html=1;aspect=fixed;strokeWidth=1;fillColor=none;fontColor=#666666;align=center;strokeColor=#000000;" parent="1" vertex="1">
                    <mxGeometry x="250" y="352" width="40" height="40" as="geometry"/>
                </mxCell>
                <mxCell id="37" value="" style="ellipse;whiteSpace=wrap;html=1;aspect=fixed;strokeWidth=1;fillColor=none;fontColor=#666666;align=center;strokeColor=#000000;" parent="1" vertex="1">
                    <mxGeometry x="385" y="113" width="40" height="40" as="geometry"/>
                </mxCell>
                <mxCell id="38" value="" style="ellipse;whiteSpace=wrap;html=1;aspect=fixed;strokeWidth=1;fillColor=none;fontColor=#666666;align=center;strokeColor=#000000;" parent="1" vertex="1">
                    <mxGeometry x="385" y="194" width="40" height="40" as="geometry"/>
                </mxCell>
                <mxCell id="39" value="" style="ellipse;whiteSpace=wrap;html=1;aspect=fixed;strokeWidth=1;fillColor=none;fontColor=#666666;align=center;strokeColor=#000000;" parent="1" vertex="1">
                    <mxGeometry x="385" y="272" width="40" height="40" as="geometry"/>
                </mxCell>
                <mxCell id="40" value="" style="ellipse;whiteSpace=wrap;html=1;aspect=fixed;strokeWidth=1;fillColor=none;fontColor=#666666;align=center;strokeColor=#000000;" parent="1" vertex="1">
                    <mxGeometry x="385" y="433" width="40" height="40" as="geometry"/>
                </mxCell>
                <mxCell id="41" value="" style="ellipse;whiteSpace=wrap;html=1;aspect=fixed;strokeWidth=1;fillColor=none;fontColor=#666666;align=center;strokeColor=#000000;" parent="1" vertex="1">
                    <mxGeometry x="385" y="352" width="40" height="40" as="geometry"/>
                </mxCell>
                <mxCell id="87" value="&lt;span style=&quot;font-size: 18px&quot;&gt;输入 1&lt;/span&gt;" style="text;html=1;resizable=0;autosize=1;align=center;verticalAlign=middle;points=[];fillColor=none;strokeColor=none;rounded=0;fontColor=#000000;" parent="1" vertex="1">
                    <mxGeometry x="25" y="123" width="70" height="20" as="geometry"/>
                </mxCell>
                <mxCell id="330" value="&lt;span style=&quot;font-size: 18px&quot;&gt;输入 2&lt;/span&gt;" style="text;html=1;resizable=0;autosize=1;align=center;verticalAlign=middle;points=[];fillColor=none;strokeColor=none;rounded=0;fontColor=#000000;" vertex="1" parent="1">
                    <mxGeometry x="25" y="204" width="70" height="20" as="geometry"/>
                </mxCell>
                <mxCell id="331" value="&lt;span style=&quot;font-size: 18px&quot;&gt;输入 3&lt;/span&gt;" style="text;html=1;resizable=0;autosize=1;align=center;verticalAlign=middle;points=[];fillColor=none;strokeColor=none;rounded=0;fontColor=#000000;" vertex="1" parent="1">
                    <mxGeometry x="25" y="282" width="70" height="20" as="geometry"/>
                </mxCell>
                <mxCell id="332" value="&lt;span style=&quot;font-size: 18px&quot;&gt;输入 4&lt;/span&gt;" style="text;html=1;resizable=0;autosize=1;align=center;verticalAlign=middle;points=[];fillColor=none;strokeColor=none;rounded=0;fontColor=#000000;" vertex="1" parent="1">
                    <mxGeometry x="25" y="362" width="70" height="20" as="geometry"/>
                </mxCell>
                <mxCell id="333" value="&lt;span style=&quot;font-size: 18px&quot;&gt;输入 5&lt;/span&gt;" style="text;html=1;resizable=0;autosize=1;align=center;verticalAlign=middle;points=[];fillColor=none;strokeColor=none;rounded=0;fontColor=#000000;" vertex="1" parent="1">
                    <mxGeometry x="25" y="443" width="70" height="20" as="geometry"/>
                </mxCell>
                <mxCell id="334" value="&lt;span style=&quot;font-size: 18px&quot;&gt;输出 1&lt;/span&gt;" style="text;html=1;resizable=0;autosize=1;align=center;verticalAlign=middle;points=[];fillColor=none;strokeColor=none;rounded=0;fontColor=#000000;" vertex="1" parent="1">
                    <mxGeometry x="470" y="122" width="70" height="20" as="geometry"/>
                </mxCell>
                <mxCell id="335" value="&lt;span style=&quot;font-size: 18px&quot;&gt;输出&lt;/span&gt;&lt;span style=&quot;font-size: 18px&quot;&gt;&amp;nbsp;2&lt;/span&gt;" style="text;html=1;resizable=0;autosize=1;align=center;verticalAlign=middle;points=[];fillColor=none;strokeColor=none;rounded=0;fontColor=#000000;" vertex="1" parent="1">
                    <mxGeometry x="470" y="203" width="70" height="20" as="geometry"/>
                </mxCell>
                <mxCell id="336" value="&lt;span style=&quot;font-size: 18px&quot;&gt;输出&lt;/span&gt;&lt;span style=&quot;font-size: 18px&quot;&gt;&amp;nbsp;3&lt;/span&gt;" style="text;html=1;resizable=0;autosize=1;align=center;verticalAlign=middle;points=[];fillColor=none;strokeColor=none;rounded=0;fontColor=#000000;" vertex="1" parent="1">
                    <mxGeometry x="470" y="281" width="70" height="20" as="geometry"/>
                </mxCell>
                <mxCell id="337" value="&lt;span style=&quot;font-size: 18px&quot;&gt;输出&lt;/span&gt;&lt;span style=&quot;font-size: 18px&quot;&gt;&amp;nbsp;4&lt;/span&gt;" style="text;html=1;resizable=0;autosize=1;align=center;verticalAlign=middle;points=[];fillColor=none;strokeColor=none;rounded=0;fontColor=#000000;" vertex="1" parent="1">
                    <mxGeometry x="470" y="361" width="70" height="20" as="geometry"/>
                </mxCell>
                <mxCell id="338" value="&lt;span style=&quot;font-size: 18px&quot;&gt;输入 5&lt;/span&gt;" style="text;html=1;resizable=0;autosize=1;align=center;verticalAlign=middle;points=[];fillColor=none;strokeColor=none;rounded=0;fontColor=#000000;" vertex="1" parent="1">
                    <mxGeometry x="470" y="442" width="70" height="20" as="geometry"/>
                </mxCell>
                <mxCell id="339" value="&lt;span style=&quot;font-size: 18px&quot;&gt;输入层&lt;/span&gt;" style="text;html=1;resizable=0;autosize=1;align=center;verticalAlign=middle;points=[];fillColor=none;strokeColor=none;rounded=0;fontColor=#000000;" vertex="1" parent="1">
                    <mxGeometry x="100" y="520" width="70" height="20" as="geometry"/>
                </mxCell>
                <mxCell id="340" value="&lt;span style=&quot;font-size: 18px&quot;&gt;隐藏层&lt;/span&gt;" style="text;html=1;resizable=0;autosize=1;align=center;verticalAlign=middle;points=[];fillColor=none;strokeColor=none;rounded=0;fontColor=#000000;" vertex="1" parent="1">
                    <mxGeometry x="235" y="520" width="70" height="20" as="geometry"/>
                </mxCell>
                <mxCell id="341" value="&lt;span style=&quot;font-size: 18px&quot;&gt;输出层&lt;/span&gt;" style="text;html=1;resizable=0;autosize=1;align=center;verticalAlign=middle;points=[];fillColor=none;strokeColor=none;rounded=0;fontColor=#000000;" vertex="1" parent="1">
                    <mxGeometry x="370" y="520" width="70" height="20" as="geometry"/>
                </mxCell>
                <mxCell id="377" style="edgeStyle=none;html=1;exitX=1;exitY=0.5;exitDx=0;exitDy=0;entryX=0;entryY=0.5;entryDx=0;entryDy=0;strokeWidth=1;strokeColor=#000000;fontSize=18;fontFamily=Times New Roman;" edge="1" parent="1" source="347" target="372">
                    <mxGeometry relative="1" as="geometry"/>
                </mxCell>
                <mxCell id="347" value="&lt;font style=&quot;font-size: 18px&quot;&gt;1&lt;/font&gt;" style="ellipse;whiteSpace=wrap;html=1;aspect=fixed;strokeWidth=1;fillColor=none;fontColor=#666666;align=center;strokeColor=#000000;fontSize=18;fontFamily=Times New Roman;" vertex="1" parent="1">
                    <mxGeometry x="130" y="585" width="40" height="40" as="geometry"/>
                </mxCell>
                <mxCell id="378" style="edgeStyle=none;html=1;exitX=1;exitY=0.5;exitDx=0;exitDy=0;entryX=0;entryY=0.5;entryDx=0;entryDy=0;strokeColor=#000000;strokeWidth=1;fontSize=18;fontFamily=Times New Roman;" edge="1" parent="1" source="353" target="373">
                    <mxGeometry relative="1" as="geometry"/>
                </mxCell>
                <mxCell id="353" value="x&lt;sub style=&quot;font-size: 18px;&quot;&gt;1&lt;/sub&gt;" style="ellipse;whiteSpace=wrap;html=1;aspect=fixed;strokeWidth=1;fillColor=none;fontColor=#666666;align=center;strokeColor=#000000;fontSize=18;fontFamily=Times New Roman;" vertex="1" parent="1">
                    <mxGeometry x="130" y="666" width="40" height="40" as="geometry"/>
                </mxCell>
                <mxCell id="379" style="edgeStyle=none;html=1;exitX=1;exitY=0.5;exitDx=0;exitDy=0;entryX=0;entryY=0.5;entryDx=0;entryDy=0;strokeColor=#000000;strokeWidth=1;fontSize=18;fontFamily=Times New Roman;" edge="1" parent="1" source="359" target="374">
                    <mxGeometry relative="1" as="geometry"/>
                </mxCell>
                <mxCell id="359" value="x&lt;span style=&quot;font-size: 18px;&quot;&gt;&lt;sub style=&quot;font-size: 18px;&quot;&gt;2&lt;/sub&gt;&lt;/span&gt;" style="ellipse;whiteSpace=wrap;html=1;aspect=fixed;strokeWidth=1;fillColor=none;fontColor=#666666;align=center;strokeColor=#000000;fontSize=18;fontFamily=Times New Roman;" vertex="1" parent="1">
                    <mxGeometry x="130" y="744" width="40" height="40" as="geometry"/>
                </mxCell>
                <mxCell id="381" style="edgeStyle=none;html=1;exitX=1;exitY=0.5;exitDx=0;exitDy=0;entryX=0;entryY=0.5;entryDx=0;entryDy=0;strokeColor=#000000;strokeWidth=1;fontSize=18;fontFamily=Times New Roman;" edge="1" parent="1" source="365" target="375">
                    <mxGeometry relative="1" as="geometry"/>
                </mxCell>
                <mxCell id="365" value="x&lt;sub style=&quot;font-size: 18px;&quot;&gt;4&lt;/sub&gt;" style="ellipse;whiteSpace=wrap;html=1;aspect=fixed;strokeWidth=1;fillColor=none;fontColor=#666666;align=center;strokeColor=#000000;fontSize=18;fontFamily=Times New Roman;" vertex="1" parent="1">
                    <mxGeometry x="130" y="905" width="40" height="40" as="geometry"/>
                </mxCell>
                <mxCell id="380" style="edgeStyle=none;html=1;exitX=1;exitY=0.5;exitDx=0;exitDy=0;entryX=0;entryY=0.5;entryDx=0;entryDy=0;strokeColor=#000000;strokeWidth=1;fontSize=18;fontFamily=Times New Roman;" edge="1" parent="1" source="371" target="376">
                    <mxGeometry relative="1" as="geometry"/>
                </mxCell>
                <mxCell id="371" value="x&lt;sub style=&quot;font-size: 18px;&quot;&gt;3&lt;/sub&gt;" style="ellipse;whiteSpace=wrap;html=1;aspect=fixed;strokeWidth=1;fillColor=none;fontColor=#666666;align=center;strokeColor=#000000;fontSize=18;fontFamily=Times New Roman;" vertex="1" parent="1">
                    <mxGeometry x="130" y="824" width="40" height="40" as="geometry"/>
                </mxCell>
                <mxCell id="383" style="edgeStyle=none;html=1;exitX=1;exitY=0.5;exitDx=0;exitDy=0;entryX=0;entryY=0.5;entryDx=0;entryDy=0;strokeColor=#000000;strokeWidth=1;" edge="1" parent="1" source="372" target="382">
                    <mxGeometry relative="1" as="geometry"/>
                </mxCell>
                <mxCell id="372" value="w1" style="ellipse;whiteSpace=wrap;html=1;aspect=fixed;strokeWidth=1;fillColor=none;fontColor=#666666;align=center;strokeColor=#000000;fontSize=18;fontFamily=Times New Roman;" vertex="1" parent="1">
                    <mxGeometry x="265" y="585" width="40" height="40" as="geometry"/>
                </mxCell>
                <mxCell id="396" style="edgeStyle=none;html=1;exitX=1;exitY=0.5;exitDx=0;exitDy=0;entryX=0;entryY=0.5;entryDx=0;entryDy=0;fontFamily=Times New Roman;fontSize=18;strokeColor=#000000;strokeWidth=1;" edge="1" parent="1" source="373" target="382">
                    <mxGeometry relative="1" as="geometry"/>
                </mxCell>
                <mxCell id="373" value="w2" style="ellipse;whiteSpace=wrap;html=1;aspect=fixed;strokeWidth=1;fillColor=none;fontColor=#666666;align=center;strokeColor=#000000;fontSize=18;fontFamily=Times New Roman;" vertex="1" parent="1">
                    <mxGeometry x="265" y="666" width="40" height="40" as="geometry"/>
                </mxCell>
                <mxCell id="384" style="edgeStyle=none;html=1;exitX=1;exitY=0.5;exitDx=0;exitDy=0;strokeColor=#000000;strokeWidth=1;" edge="1" parent="1" source="374">
                    <mxGeometry relative="1" as="geometry">
                        <mxPoint x="400" y="764" as="targetPoint"/>
                    </mxGeometry>
                </mxCell>
                <mxCell id="374" value="w3" style="ellipse;whiteSpace=wrap;html=1;aspect=fixed;strokeWidth=1;fillColor=none;fontColor=#666666;align=center;strokeColor=#000000;fontSize=18;fontFamily=Times New Roman;" vertex="1" parent="1">
                    <mxGeometry x="265" y="744" width="40" height="40" as="geometry"/>
                </mxCell>
                <mxCell id="386" style="edgeStyle=none;html=1;exitX=1;exitY=0.5;exitDx=0;exitDy=0;strokeColor=#000000;strokeWidth=1;" edge="1" parent="1" source="375">
                    <mxGeometry relative="1" as="geometry">
                        <mxPoint x="400" y="760" as="targetPoint"/>
                    </mxGeometry>
                </mxCell>
                <mxCell id="375" value="w5" style="ellipse;whiteSpace=wrap;html=1;aspect=fixed;strokeWidth=1;fillColor=none;fontColor=#666666;align=center;strokeColor=#000000;fontSize=18;fontFamily=Times New Roman;" vertex="1" parent="1">
                    <mxGeometry x="265" y="905" width="40" height="40" as="geometry"/>
                </mxCell>
                <mxCell id="385" style="edgeStyle=none;html=1;exitX=1;exitY=0.5;exitDx=0;exitDy=0;strokeColor=#000000;strokeWidth=1;" edge="1" parent="1" source="376">
                    <mxGeometry relative="1" as="geometry">
                        <mxPoint x="400" y="760" as="targetPoint"/>
                    </mxGeometry>
                </mxCell>
                <mxCell id="376" value="w4" style="ellipse;whiteSpace=wrap;html=1;aspect=fixed;strokeWidth=1;fillColor=none;fontColor=#666666;align=center;strokeColor=#000000;fontSize=18;fontFamily=Times New Roman;" vertex="1" parent="1">
                    <mxGeometry x="265" y="824" width="40" height="40" as="geometry"/>
                </mxCell>
                <mxCell id="387" style="edgeStyle=none;html=1;exitX=1;exitY=0.5;exitDx=0;exitDy=0;strokeColor=#000000;strokeWidth=1;" edge="1" parent="1" source="382">
                    <mxGeometry relative="1" as="geometry">
                        <mxPoint x="520" y="764" as="targetPoint"/>
                    </mxGeometry>
                </mxCell>
                <mxCell id="382" value="" style="ellipse;whiteSpace=wrap;html=1;aspect=fixed;strokeWidth=1;fillColor=none;fontColor=#666666;align=center;strokeColor=#000000;" vertex="1" parent="1">
                    <mxGeometry x="400" y="744" width="40" height="40" as="geometry"/>
                </mxCell>
                <mxCell id="390" value="" style="edgeStyle=none;html=1;strokeColor=#000000;strokeWidth=1;" edge="1" parent="1" source="388" target="389">
                    <mxGeometry relative="1" as="geometry"/>
                </mxCell>
                <mxCell id="388" value="" style="ellipse;whiteSpace=wrap;html=1;aspect=fixed;strokeWidth=1;fillColor=none;fontColor=#666666;align=center;strokeColor=#000000;" vertex="1" parent="1">
                    <mxGeometry x="520" y="744" width="40" height="40" as="geometry"/>
                </mxCell>
                <mxCell id="389" value="" style="ellipse;whiteSpace=wrap;html=1;aspect=fixed;strokeWidth=1;fillColor=none;fontColor=#666666;align=center;strokeColor=#000000;" vertex="1" parent="1">
                    <mxGeometry x="640" y="744" width="40" height="40" as="geometry"/>
                </mxCell>
                <mxCell id="391" value="&lt;span style=&quot;font-size: 18px&quot;&gt;输入&lt;/span&gt;" style="text;html=1;resizable=0;autosize=1;align=center;verticalAlign=middle;points=[];fillColor=none;strokeColor=none;rounded=0;fontColor=#000000;" vertex="1" parent="1">
                    <mxGeometry x="130" y="990" width="50" height="20" as="geometry"/>
                </mxCell>
                <mxCell id="392" value="&lt;span style=&quot;font-size: 18px&quot;&gt;权重&lt;/span&gt;" style="text;html=1;resizable=0;autosize=1;align=center;verticalAlign=middle;points=[];fillColor=none;strokeColor=none;rounded=0;fontColor=#000000;" vertex="1" parent="1">
                    <mxGeometry x="260" y="990" width="50" height="20" as="geometry"/>
                </mxCell>
                <mxCell id="393" value="&lt;span style=&quot;font-size: 18px&quot;&gt;激活函数&lt;/span&gt;" style="text;html=1;resizable=0;autosize=1;align=center;verticalAlign=middle;points=[];fillColor=none;strokeColor=none;rounded=0;fontColor=#000000;" vertex="1" parent="1">
                    <mxGeometry x="495" y="834" width="90" height="20" as="geometry"/>
                </mxCell>
                <mxCell id="394" value="&lt;span style=&quot;font-size: 18px&quot;&gt;输出&lt;/span&gt;" style="text;html=1;resizable=0;autosize=1;align=center;verticalAlign=middle;points=[];fillColor=none;strokeColor=none;rounded=0;fontColor=#000000;" vertex="1" parent="1">
                    <mxGeometry x="635" y="834" width="50" height="20" as="geometry"/>
                </mxCell>
                <mxCell id="395" value="&lt;span style=&quot;font-size: 18px&quot;&gt;求和&lt;/span&gt;" style="text;html=1;resizable=0;autosize=1;align=center;verticalAlign=middle;points=[];fillColor=none;strokeColor=none;rounded=0;fontColor=#000000;" vertex="1" parent="1">
                    <mxGeometry x="395" y="834" width="50" height="20" as="geometry"/>
                </mxCell>
            </root>
        </mxGraphModel>
    </diagram>
</mxfile>